<?xml version="1.0" encoding="utf-8"?>
<!-- Generator: Adobe Illustrator 21.0.0, SVG Export Plug-In . SVG Version: 6.00 Build 0)  -->
<svg version="1.1" baseProfile="tiny" id="Layer_1" xmlns="http://www.w3.org/2000/svg" xmlns:xlink="http://www.w3.org/1999/xlink"
	 x="0px" y="0px" viewBox="0 0 1000 400" overflow="scroll" xml:space="preserve">
<rect x="-0.5" fill="#C84D3E" width="1001" height="400"/>
<g>
	<circle fill="#FFFFFF" cx="235.5" cy="200" r="149"/>
	<g>
		<path fill="#C84D3E" d="M190.6,159.2c0.6,3.9,0.9,7.1,0.9,9.6c0,1.7-0.1,3.4-0.2,5.2c-0.1,1.7-0.3,3.3-0.6,4.9l-45.8,16.5
			l45.8,15.6c0.3,1.5,0.5,3.1,0.6,4.8c0.1,1.7,0.2,3.4,0.2,5.1c0,1.4-0.1,3-0.2,4.9c-0.1,1.8-0.4,3.7-0.8,5.8l-62.9-24.9
			c-0.9-4-1.4-8-1.4-11.8c0-3.5,0.5-7.1,1.4-10.8L190.6,159.2z"/>
		<path fill="#C84D3E" d="M243.2,137.6c3.7-0.6,7.4-0.9,10.9-0.9c3.4,0,7,0.3,10.6,0.9l-37,109.2c-3.6,0.6-7.2,0.9-10.8,0.9
			c-3.4,0-7-0.3-10.6-0.9L243.2,137.6z"/>
		<path fill="#C84D3E" d="M326.1,195.3l-45.8-15.6c-0.3-1.5-0.5-3.1-0.6-4.8c-0.1-1.7-0.2-3.4-0.2-5.1c0-1.4,0-3,0.2-4.9
			c0.1-1.8,0.4-3.7,0.8-5.8l62.9,24.9c0.9,4.2,1.4,8.1,1.4,11.8c0,3.5-0.5,7.1-1.4,10.8l-62.9,24.7c-0.6-3.9-0.9-7.1-0.9-9.6
			c0-1.7,0-3.4,0.2-5.2c0.1-1.7,0.3-3.3,0.6-4.9L326.1,195.3z"/>
	</g>
</g>
<g>
	<path fill="#F9FBF3" d="M440,137.6c4.3-0.5,8.7-0.9,13.4-1.3c4.7-0.4,9.8-0.5,15.5-0.5c19.1,0,33.7,4.8,43.6,14.3
		c10,9.5,15,23.8,15,42.8c0,19.1-5.1,33.2-15.2,42.2c-10.1,9-25.2,13.5-45.1,13.5c-5.2,0-9.9-0.2-14.3-0.5
		c-4.4-0.4-8.7-0.8-12.9-1.3V137.6z M462.3,229.2c0.9,0.1,2.1,0.2,3.5,0.3c1.4,0.1,3.1,0.2,5.2,0.2c4.7,0,9-0.5,13-1.6
		c4-1.1,7.5-3,10.4-5.8c2.9-2.8,5.3-6.6,7-11.4c1.7-4.8,2.6-10.9,2.6-18.4c0-7.3-0.9-13.4-2.6-18.2c-1.7-4.9-4-8.7-7-11.5
		c-2.9-2.8-6.3-4.8-10.1-6c-3.8-1.2-7.8-1.7-12.1-1.7c-1.4,0-3.1,0-4.9,0.1c-1.9,0.1-3.5,0.2-4.9,0.4V229.2z"/>
	<path fill="#F9FBF3" d="M562.9,214.2c0.4,6.1,2.5,10.5,6.4,13.2c3.8,2.7,8.9,4.1,15.2,4.1c3.4,0,7-0.3,10.6-1
		c3.6-0.7,7-1.6,10.2-2.8c1.1,2,2.1,4.5,2.9,7.3c0.8,2.8,1.3,5.9,1.4,9.1c-7.9,3-16.8,4.6-26.7,4.6c-7.3,0-13.5-1-18.7-3
		c-5.2-2-9.5-4.8-12.8-8.4c-3.3-3.6-5.7-7.9-7.3-12.8c-1.6-5-2.4-10.4-2.4-16.2c0-5.8,0.8-11.2,2.4-16.2c1.6-5.1,4-9.5,7.2-13.2
		c3.2-3.7,7.1-6.7,11.8-8.9c4.7-2.2,10.2-3.3,16.5-3.3c5.5,0,10.3,1,14.6,2.9c4.3,1.9,7.9,4.6,10.9,7.9c3,3.3,5.2,7.3,6.8,11.9
		c1.5,4.6,2.3,9.5,2.3,14.8c0,1.9-0.1,3.8-0.2,5.7c-0.2,1.9-0.3,3.4-0.5,4.5H562.9z M593.7,199.1c-0.2-4.9-1.5-8.8-4-11.8
		c-2.5-3-5.9-4.5-10.4-4.5c-5.1,0-8.9,1.4-11.5,4.3c-2.6,2.8-4.2,6.8-4.7,12H593.7z"/>
	<path fill="#F9FBF3" d="M618.2,168.5c2.4-0.5,4.7-0.8,6.8-0.9c2.1-0.1,3.9-0.2,5.4-0.2c2,0,4,0.1,6.1,0.2c2,0.1,3.9,0.4,5.6,0.8
		l17.2,58.4l16.9-58.4c1.7-0.3,3.5-0.5,5.5-0.7c1.9-0.2,3.8-0.2,5.8-0.2c1.5,0,3.3,0.1,5.2,0.2c2,0.1,4.2,0.4,6.8,0.9l-29.8,78.3
		c-1.9,0.3-3.9,0.5-6.1,0.6c-2.1,0.1-3.9,0.2-5.3,0.2c-1.5,0-3.2-0.1-5.2-0.2c-1.9-0.1-3.7-0.4-5.5-0.8L618.2,168.5z"/>
	<path fill="#F9FBF3" d="M713.7,137.6c4-0.6,7.9-0.9,11.7-0.9c3.9,0,7.8,0.3,11.7,0.9l25,62.5l25.8-62.5c3.1-0.6,6.6-0.9,10.5-0.9
		c3.8,0,7.5,0.3,11.1,0.9l5.2,109.2c-3.8,0.6-7.5,0.9-10.9,0.9c-3.4,0-6.8-0.3-10.2-0.9l-2.7-74.1L768.6,224
		c-1.4,0.2-2.9,0.4-4.4,0.5c-1.5,0.2-3,0.2-4.6,0.2c-1.3,0-2.6,0-3.9-0.2c-1.3-0.1-2.7-0.3-4.1-0.6L731,171.7l-2.1,75.1
		c-3.2,0.6-6.4,0.9-9.4,0.9c-3.2,0-6.6-0.3-10-0.9L713.7,137.6z"/>
	<path fill="#F9FBF3" d="M855.9,156.5h-27.2c-0.6-3-0.9-6.2-0.9-9.6c0-3.1,0.3-6.2,0.9-9.3h76.7c0.6,3,0.9,6.1,0.9,9.3
		c0,3.3-0.3,6.5-0.9,9.6h-27.2v90.3c-1.8,0.2-3.6,0.4-5.5,0.5c-1.8,0.2-3.6,0.2-5.3,0.2c-1.7,0-3.6-0.1-5.5-0.2c-2-0.1-4-0.3-6-0.6
		V156.5z"/>
</g>
</svg>
