<?xml version="1.0" encoding="utf-8"?>
<!-- Generator: Adobe Illustrator 21.0.0, SVG Export Plug-In . SVG Version: 6.00 Build 0)  -->
<svg version="1.1" baseProfile="tiny" id="Layer_1" xmlns="http://www.w3.org/2000/svg" xmlns:xlink="http://www.w3.org/1999/xlink"
	 x="0px" y="0px" viewBox="0 0 420 420" overflow="scroll" xml:space="preserve">
<rect fill="#FFFFFF" width="420" height="420"/>
<g>
	<path fill="#C84D3E" d="M165.1,169.2c0.6,3.9,0.9,7.1,0.9,9.6c0,1.7-0.1,3.4-0.2,5.2c-0.1,1.7-0.3,3.3-0.6,4.9l-45.8,16.5
		l45.8,15.6c0.3,1.5,0.5,3.1,0.6,4.8c0.1,1.7,0.2,3.4,0.2,5.1c0,1.4-0.1,3-0.2,4.9c-0.1,1.8-0.4,3.7-0.8,5.8l-62.9-24.9
		c-0.9-4-1.4-8-1.4-11.8c0-3.5,0.5-7.1,1.4-10.8L165.1,169.2z"/>
	<path fill="#C84D3E" d="M217.7,147.6c3.7-0.6,7.4-0.9,10.9-0.9c3.4,0,7,0.3,10.6,0.9l-37,109.2c-3.6,0.6-7.2,0.9-10.8,0.9
		c-3.4,0-7-0.3-10.6-0.9L217.7,147.6z"/>
	<path fill="#C84D3E" d="M300.6,205.3l-45.8-15.6c-0.3-1.5-0.5-3.1-0.6-4.8c-0.1-1.7-0.2-3.4-0.2-5.1c0-1.4,0-3,0.2-4.9
		c0.1-1.8,0.4-3.7,0.8-5.8l62.9,24.9c0.9,4.2,1.4,8.1,1.4,11.8c0,3.5-0.5,7.1-1.4,10.8l-62.9,24.7c-0.6-3.9-0.9-7.1-0.9-9.6
		c0-1.7,0-3.4,0.2-5.2c0.1-1.7,0.3-3.3,0.6-4.9L300.6,205.3z"/>
</g>
</svg>
