<?xml version="1.0" encoding="UTF-8" standalone="no"?>
<svg
   xmlns:dc="http://purl.org/dc/elements/1.1/"
   xmlns:cc="http://creativecommons.org/ns#"
   xmlns:rdf="http://www.w3.org/1999/02/22-rdf-syntax-ns#"
   xmlns:svg="http://www.w3.org/2000/svg"
   xmlns="http://www.w3.org/2000/svg"
   viewBox="0 0 1333.3333 533.33331"
   height="533.33331"
   width="1333.3333"
   xml:space="preserve"
   id="svg2"
   version="1.1"><metadata
     id="metadata8"><rdf:RDF><cc:Work
         rdf:about=""><dc:format>image/svg+xml</dc:format><dc:type
           rdf:resource="http://purl.org/dc/dcmitype/StillImage" /></cc:Work></rdf:RDF></metadata><defs
     id="defs6"><clipPath
       id="clipPath20"
       clipPathUnits="userSpaceOnUse"><path
         id="path18"
         d="M 0,400 H 1000 V 0 H 0 Z" /></clipPath></defs><g
     transform="matrix(1.3333333,0,0,-1.3333333,0,533.33333)"
     id="g10"><path
       id="path12"
       style="fill:#e64c3c;fill-opacity:1;fill-rule:nonzero;stroke:none"
       d="M 0,0 H 1000 V 400 H 0 Z" /><g
       id="g14"><g
         clip-path="url(#clipPath20)"
         id="g16"><g
           transform="translate(384.499,200)"
           id="g22"><path
             id="path24"
             style="fill:#ffffff;fill-opacity:1;fill-rule:nonzero;stroke:none"
             d="m 0,0 c 0,-82.29 -66.71,-149 -149,-149 -82.29,0 -149,66.71 -149,149 0,82.29 66.71,149 149,149 C -66.71,149 0,82.29 0,0" /></g></g></g><text
       id="text30"
       style="font-variant:normal;font-weight:bold;font-stretch:normal;font-size:151.81129456px;font-family:Aller;-inkscape-font-specification:Aller-Bold;writing-mode:lr-tb;fill:#f8fbf3;fill-opacity:1;fill-rule:nonzero;stroke:none"
       transform="matrix(1,0,0,-1,113.3682,153.2031)"><tspan
         id="tspan26"
         y="0"
         x="0 91.086777 153.1776">&lt;/&gt;</tspan><tspan
         id="tspan28"
         y="0"
         x="315.46387 421.73178 504.01352 586.59888 710.62872">DevMT</tspan></text>
</g></svg>