<?xml version="1.0" encoding="UTF-8" standalone="no"?>
<svg
   xmlns:dc="http://purl.org/dc/elements/1.1/"
   xmlns:cc="http://creativecommons.org/ns#"
   xmlns:rdf="http://www.w3.org/1999/02/22-rdf-syntax-ns#"
   xmlns:svg="http://www.w3.org/2000/svg"
   xmlns="http://www.w3.org/2000/svg"
   viewBox="0 0 666.66669 666.66669"
   height="666.66669"
   width="666.66669"
   xml:space="preserve"
   id="svg2"
   version="1.1"><metadata
     id="metadata8"><rdf:RDF><cc:Work
         rdf:about=""><dc:format>image/svg+xml</dc:format><dc:type
           rdf:resource="http://purl.org/dc/dcmitype/StillImage" /></cc:Work></rdf:RDF></metadata><defs
     id="defs6"><clipPath
       id="clipPath20"
       clipPathUnits="userSpaceOnUse"><path
         id="path18"
         d="M 0,500 H 500 V 0 H 0 Z" /></clipPath><clipPath
       id="clipPath36"
       clipPathUnits="userSpaceOnUse"><path
         id="path34"
         d="M 0,500 H 500 V 0 H 0 Z" /></clipPath></defs><g
     transform="matrix(1.3333333,0,0,-1.3333333,0,666.66667)"
     id="g10"><path
       id="path12"
       style="fill:#e64c3c;fill-opacity:1;fill-rule:nonzero;stroke:none"
       d="M 0,0 H 500 V 500 H 0 Z" /><g
       id="g14"><g
         clip-path="url(#clipPath20)"
         id="g16"><g
           transform="translate(398.999,312.6016)"
           id="g22"><path
             id="path24"
             style="fill:#ffffff;fill-opacity:1;fill-rule:nonzero;stroke:none"
             d="m 0,0 c 0,-82.29 -66.71,-149 -149,-149 -82.29,0 -149,66.71 -149,149 0,82.29 66.71,149 149,149 C -66.71,149 0,82.29 0,0" /></g></g></g><text
       id="text28"
       style="font-variant:normal;font-weight:bold;font-stretch:normal;font-size:151.81129456px;font-family:Aller;-inkscape-font-specification:Aller-Bold;writing-mode:lr-tb;fill:#e64c3c;fill-opacity:1;fill-rule:nonzero;stroke:none"
       transform="matrix(1,0,0,-1,127.8682,265.8047)"><tspan
         id="tspan26"
         y="0"
         x="0 91.086777 153.1776">&lt;/&gt;</tspan></text>
<g
       id="g30"><g
         clip-path="url(#clipPath36)"
         id="g32"><text
           id="text40"
           style="font-variant:normal;font-weight:bold;font-stretch:normal;font-size:151.81129456px;font-family:Aller;-inkscape-font-specification:Aller-Bold;writing-mode:lr-tb;fill:#f8fbf3;fill-opacity:1;fill-rule:nonzero;stroke:none"
           transform="matrix(1,0,0,-1,9.3804,36.8047)"><tspan
             id="tspan38"
             y="0"
             x="0 106.26791 188.54964 271.13498 395.16483">DevMT</tspan></text>
</g></g></g></svg>